<svg xmlns="http://www.w3.org/2000/svg" viewBox="0 0 114.1 114.19"><defs><style>.cls-1{fill:#fff;}.cls-2{fill:#e81f2b;}.cls-3{fill:#184895;}</style></defs><title>logo-pepsi</title><g id="Layer_2" data-name="Layer 2"><g id="Layer_1-2" data-name="Layer 1"><circle class="cls-1" cx="56.91" cy="57.02" r="56.69"/><path class="cls-2" d="M56.64,0A58.13,58.13,0,0,1,90.53,10.85a1.39,1.39,0,0,1,.61,1.86A119.69,119.69,0,0,1,61.58,61.06,119.46,119.46,0,0,1,12.33,90.91a1.34,1.34,0,0,1-1.79-.6A55.58,55.58,0,0,1,.15,61.64C-1.12,42.54,5.5,26.55,19.82,13.91A55.16,55.16,0,0,1,52.72.22C54.19.11,55.66.05,56.64,0Z"/><path class="cls-3" d="M13.6,94c4.55-1.26,8.89-2.6,13.3-3.65,12.37-3,24.78-5.71,37.15-8.66a83.87,83.87,0,0,0,21.6-8c9.18-5.14,15.88-12.48,19.55-22.41A38.94,38.94,0,0,0,107.11,31c0-.31-.06-.62-.09-1C118.76,50,117.17,82.17,92.51,101.77A56.91,56.91,0,0,1,13.6,94Z"/></g></g></svg>