<?xml version="1.0" encoding="utf-8"?>
<!-- Generator: Adobe Illustrator 22.1.0, SVG Export Plug-In . SVG Version: 6.00 Build 0)  -->
<svg version="1.1" id="Layer_1" xmlns="http://www.w3.org/2000/svg" xmlns:xlink="http://www.w3.org/1999/xlink" x="0px" y="0px"
	 viewBox="0 0 97.8 96.8" style="enable-background:new 0 0 97.8 96.8;" xml:space="preserve">
<style type="text/css">
	.st0{fill:#FFFFFF;}
</style>
<g>
	<path class="st0" d="M56.9,47.4c-3.9-2-7.7-4-11.6-6c-1.1-0.6-1.7-0.2-1.7,1.1c0,2,0,3.9,0,5.9c0,2,0,4,0,6c0,1.3,0.6,1.7,1.8,1.1
		c3.9-2,7.7-3.9,11.6-5.9c0.4-0.2,0.8-0.7,0.8-1.1C57.7,48.1,57.2,47.6,56.9,47.4z"/>
	<path class="st0" d="M48.9,1.9C23.2,1.9,2.4,22.7,2.4,48.4c0,25.7,20.8,46.5,46.5,46.5s46.5-20.8,46.5-46.5S74.6,1.9,48.9,1.9z
		 M69.3,56.7c-0.1,2.7-2.7,5.4-5.4,5.8c-0.6,0.1-1.1,0.2-1.7,0.2c-8.9,0-17.7,0-26.6,0c-3.5,0-6.2-2-7-5.2c-0.2-0.7-0.2-1.5-0.2-2.2
		c0-4.5,0-9,0-13.6c0-4.6,2.8-7.4,7.5-7.5c4.4,0,8.8,0,13.1,0c0,0,0,0,0,0.1c4.8,0,9.5-0.1,14.3,0c3.2,0.1,6,2.9,6.1,6.1
		C69.5,45.8,69.5,51.2,69.3,56.7z"/>
</g>
</svg>
