<?xml version="1.0" encoding="utf-8"?>
<!-- Generator: Adobe Illustrator 22.1.0, SVG Export Plug-In . SVG Version: 6.00 Build 0)  -->
<svg version="1.1" id="Layer_1" xmlns="http://www.w3.org/2000/svg" xmlns:xlink="http://www.w3.org/1999/xlink" x="0px" y="0px"
	 viewBox="0 0 97.8 96.8" style="enable-background:new 0 0 97.8 96.8;" xml:space="preserve">
<style type="text/css">
	.st0{fill:#FFFFFF;}
</style>
<g>
	<path class="st0" d="M48.9,1.9C23.2,1.9,2.4,22.7,2.4,48.4s20.8,46.5,46.5,46.5s46.5-20.8,46.5-46.5S74.6,1.9,48.9,1.9z M79.1,50.9
		c-0.6,5.6-2.6,10.5-6.1,14.9c-2.7,3.4-6.1,6-10,7.9c-2.2,1.1-4.5,1.8-7,2.2c-2.1,0.4-4.3,0.5-6.5,0.4c-3.1-0.2-6-0.8-8.9-1.9
		c-1-0.4-1.9-0.9-2.9-1.3c-0.1-0.1-0.3-0.1-0.4,0c-4.8,1.3-9.7,2.5-14.5,3.8c-0.1,0-0.1,0-0.2,0c0.4-1.5,0.8-3.1,1.3-4.6
		c0.9-3.3,1.8-6.5,2.7-9.8c0-0.1,0-0.3,0-0.4c-1.7-3.1-2.9-6.3-3.4-9.8c-0.3-2.2-0.4-4.5-0.2-6.8c0.5-5.4,2.4-10.2,5.7-14.5
		c2.7-3.5,6.1-6.2,10.1-8.2c2.4-1.2,5-2,7.7-2.4c2.5-0.4,5-0.5,7.5-0.2c4.3,0.4,8.2,1.8,11.9,4.1c4.3,2.7,7.6,6.2,10,10.6
		c1.5,2.8,2.5,5.7,3,8.8C79.2,46,79.3,48.4,79.1,50.9z"/>
	<path class="st0" d="M68.1,32.1c-2.2-2.3-4.7-4.1-7.6-5.4c-2.6-1.2-5.4-1.8-8.2-2c-2.4-0.1-4.8,0.1-7.1,0.7c-3.7,1-7,2.7-9.9,5.3
		c-2.9,2.6-5,5.7-6.3,9.4c-1.3,3.5-1.7,7.2-1.2,10.9c0.2,1.9,0.7,3.8,1.4,5.6c0.6,1.6,1.5,3.1,2.4,4.6c0.1,0.1,0.1,0.3,0.1,0.4
		c-0.6,2.4-1.3,4.7-1.9,7.1c-0.1,0.4-0.2,0.9-0.4,1.4c0.1,0,0.1,0,0.2,0c2.7-0.7,5.4-1.4,8.1-2.1c0.4-0.1,0.8-0.1,1.2,0.2
		c3.2,2,6.8,3.1,10.5,3.4c2.3,0.2,4.6,0,6.9-0.5c5.3-1.3,9.7-4,13.1-8.3c3.1-3.9,4.7-8.3,5-13.3c0.1-2.5-0.1-5-0.8-7.4
		C72.6,38.2,70.7,34.9,68.1,32.1z M64.7,58.4c-0.2,0.5-0.6,0.9-1,1.3c-0.9,0.8-2,1.4-3.2,1.8c-0.8,0.2-1.7,0.3-2.6,0.2
		c-1.3,0-2.5-0.5-3.7-0.9c-2.9-1-5.6-2.4-8-4.4c-2-1.6-3.8-3.5-5.4-5.6c-0.9-1.1-1.7-2.3-2.4-3.5c-0.8-1.2-1.3-2.6-1.6-4.1
		c-0.4-2.7,0.2-5.1,2.2-7.1c0.5-0.5,0.9-0.9,1.6-1C41,35,41.4,35,41.8,35l0,0c0.3,0,0.5,0,0.8,0c0.4,0,0.7,0.1,0.9,0.4
		c0.2,0.3,0.4,0.7,0.5,1c0.7,1.7,1.4,3.4,2.2,5.2c0.2,0.4,0.1,0.8,0,1.1c-0.4,0.9-1.1,1.7-1.8,2.4c-0.5,0.5-0.5,0.8-0.2,1.5
		c1.7,2.9,4,5.4,7,7.1c0.9,0.5,1.8,0.9,2.8,1.3c0.5,0.2,0.9,0.1,1.2-0.3c0.7-0.9,1.5-1.8,2.2-2.7c0.5-0.6,0.8-0.8,1.5-0.5
		c0.9,0.4,1.7,0.8,2.6,1.2c1,0.5,2.1,1,3.1,1.5c0.5,0.2,0.7,0.6,0.7,1.1C65.3,56.5,65.1,57.5,64.7,58.4z"/>
</g>
</svg>
