<svg xmlns="http://www.w3.org/2000/svg" viewBox="0 0 110 110"><defs><style>.cls-1{fill:#fff;}.cls-2{fill:#0d4671;}</style></defs><title>lock</title><g id="Layer_2" data-name="Layer 2"><g id="Layer_2-2" data-name="Layer 2"><circle class="cls-1" cx="55" cy="55" r="55"/><path class="cls-2" d="M40.2,50.85c0-2.33,0-4.54,0-6.74a14.21,14.21,0,0,1,5.26-11.42,14.1,14.1,0,0,1,15-2.42,14,14,0,0,1,9.12,11.91,69.86,69.86,0,0,1,.18,7.24c0,.43,0,.87,0,1.43h1.4a2.43,2.43,0,0,1,2.62,2.61q0,12.45,0,24.89a2.31,2.31,0,0,1-2.55,2.54H38.72c-1.69,0-2.55-.9-2.56-2.71,0-3.64,0-7.28,0-10.92V54.09c0-2.46.76-3.22,3.24-3.24Zm5.5-.05H64.26a74.8,74.8,0,0,0-.06-8.48A9.12,9.12,0,0,0,55,34.56c-4.59,0-8.71,3.33-9.21,7.79A76.58,76.58,0,0,0,45.7,50.8Zm5.83,22.51h6.95c-.43-2.67-.83-5.28-1.29-7.88a1.28,1.28,0,0,1,.39-1.29,3.56,3.56,0,0,0-.07-5.09,3.67,3.67,0,0,0-5,0,3.59,3.59,0,0,0,0,5.09,1.3,1.3,0,0,1,.39,1.3C52.38,68.06,52,70.67,51.53,73.31Z"/></g></g></svg>