<?xml version="1.0" encoding="utf-8"?>
<!-- Generator: Adobe Illustrator 22.1.0, SVG Export Plug-In . SVG Version: 6.00 Build 0)  -->
<svg version="1.1" id="Layer_1" xmlns="http://www.w3.org/2000/svg" xmlns:xlink="http://www.w3.org/1999/xlink" x="0px" y="0px"
	 viewBox="0 0 400 400" style="enable-background:new 0 0 400 400;" xml:space="preserve">
<style type="text/css">
	.st0{fill:#231F20;}
	.st1{fill:#EE3E42;}
	.st2{fill:#FFFFFF;}
	.st3{fill:#FBAF33;}
</style>
<path class="st0" d="M120.5,297.7c5.7-14.3,44.1-111.2,44.1-111.2l-25.3,9.7l41.5-63.1l105.3-34.9l-28.2,34l35.3-12.3L120.5,297.7"
	/>
<polyline class="st1" points="184.2,137.8 262.6,111.8 234.1,146.1 265,135.5 139.3,265 175.1,174.8 154.8,182.6 184.2,137.8 "/>
<path class="st2" d="M243.6,180.9l-64.3,65.9h59.8v50.6c-13.7,5.8-22.7,7.9-36.9,7.9c-23.1,0-44-7.3-60.3-20l-38.3,38.2l21.3-54.8
	c-12.8-17.7-21.3-42.7-21.3-68.3c0-55.9,38-97,90.2-97c13,0,24.9,1.9,36.5,6.2l74-24.1l-26.1,32.7l39.7-14.2l-25.8,26.5l-3.2,3.3
	h35.3V15.4h-55.8v17.5C246.1,24.3,221.5,20,194.3,20C83,20,2.9,97.6,2.9,206.2c0,105.5,77,178.8,187.7,178.8
	c52.2,0,99.1-14.2,139.7-42.2V180.9H243.6L243.6,180.9z"/>
<polygon class="st3" points="147.5,244.4 247.1,141.7 219.1,151.2 247.6,116.8 184.2,137.8 162.7,170.5 179.3,164.3 "/>
<path class="st2" d="M342.1,41.6c0-3.6,0.9-7.2,2.1-10.1c1.2-3.3,3.3-6,5.7-8.6c2.4-2.4,5.3-4.5,8.6-5.7c3.3-1.2,6.5-2.1,10.1-2.1
	s7.2,0.9,10.5,2.1s6,3.3,8.6,5.7c2.4,2.4,4.5,5.3,5.7,8.6s2.1,6.5,2.1,10.1s-0.9,7.2-2.1,10.1c-1.2,3.3-3.3,6-5.7,8.6
	c-2.4,2.4-5.3,4.5-8.6,5.7s-6.9,2.1-10.5,2.1s-6.9-0.9-10.1-2.1c-3.3-1.2-6-3.3-8.6-5.7c-2.4-2.4-4.5-5.3-5.7-8.6
	C343,48.5,342.1,45.2,342.1,41.6z M345.7,41.6c0,3.3,0.3,6,1.5,8.9s2.9,5.3,4.8,7.2c2.1,2.1,4.5,3.6,7.2,4.8
	c2.9,1.2,5.7,1.5,8.9,1.5c3.3,0,6-0.3,8.9-1.5s5.3-2.9,7.2-4.8c2.1-2.1,3.6-4.5,4.8-7.2c1.2-2.9,1.5-5.7,1.5-8.9s-0.3-6-1.5-8.9
	s-2.9-5.3-4.8-7.2c-1.9-1.9-4.5-3.6-7.2-4.8c-2.7-1.2-5.7-1.5-8.9-1.5c-3.3,0-6,0.3-8.9,1.5s-5.3,2.9-7.2,4.8
	c-1.9,1.9-3.6,4.5-4.8,7.2C346.2,35.1,345.7,38.3,345.7,41.6z M357,55.3V52h3.3V29H357v-3.3h11c2.1,0,4.1,0.3,5.7,0.9
	c1.5,0.3,2.9,1.2,3.6,2.1c0.9,0.9,1.5,1.5,2.4,2.9c0.3,1.2,0.9,2.4,0.9,3.6c0,2.1-0.9,3.6-2.1,5.3c-1.2,1.5-3.3,2.4-5.7,2.9l7.2,9.3
	h4.1v2.9h-5.7l-9.3-12.2h-4.8v8.9h4.1v3.3L357,55.3L357,55.3z M376.4,35.1c0-2.1-0.9-3.3-2.1-4.1c-1.2-0.9-3.3-1.2-5.7-1.2h-5.3v11
	h5.3c2.4,0,4.1-0.3,5.3-1.5C376,38,376.4,36.8,376.4,35.1z"/>
</svg>
