<?xml version="1.0" encoding="utf-8"?>
<!-- Generator: Adobe Illustrator 22.1.0, SVG Export Plug-In . SVG Version: 6.00 Build 0)  -->
<svg version="1.1" id="Layer_2" xmlns="http://www.w3.org/2000/svg" xmlns:xlink="http://www.w3.org/1999/xlink" x="0px" y="0px"
	 viewBox="0 0 114.1 114.2" style="enable-background:new 0 0 114.1 114.2;" xml:space="preserve">
<style type="text/css">
	.st0{fill:#FFFFFF;}
	.st1{fill:#184895;}
	.st2{fill:#E81D2B;}
</style>
<g>
	<circle class="st0" cx="57" cy="57.1" r="51.9"/>
	<circle class="st0" cx="57" cy="57.1" r="50.4"/>
	<path class="st1" d="M91.2,64.5C70.4,83.8,43.8,79.4,18.6,89.7c9.2,10.9,23,17.8,38.5,17.8c27.8,0,50.4-22.6,50.4-50.4
		c0-8.6-2.1-16.7-5.9-23.7h0C101.5,33.4,103,51.2,91.2,64.5z"/>
	<path class="st2" d="M57,6.7C29.2,6.7,6.6,29.3,6.6,57.1c0,11.1,3.6,21.4,9.7,29.8c0.2,0,17.1-1.8,45.1-26.8
		c16.3-14.8,23-34.9,25.5-43.5C78.6,10.4,68.3,6.7,57,6.7z"/>
</g>
</svg>
