<?xml version="1.0" encoding="utf-8"?>
<!-- Generator: Adobe Illustrator 22.1.0, SVG Export Plug-In . SVG Version: 6.00 Build 0)  -->
<svg version="1.1" id="Layer_1" xmlns="http://www.w3.org/2000/svg" xmlns:xlink="http://www.w3.org/1999/xlink" x="0px" y="0px"
	 viewBox="0 0 114.1 114.2" style="enable-background:new 0 0 114.1 114.2;" xml:space="preserve">
<style type="text/css">
	.st0{fill:#FFFFFF;}
	.st1{fill:#E81D2B;}
	.st2{fill:#184895;}
</style>
<g>
	<circle class="st0" cx="57" cy="57.1" r="53.6"/>
	<circle class="st0" cx="56.9" cy="57" r="50.1"/>
	<path class="st1" d="M56.7,6.7c10.7,0,21.2,3.3,29.9,9.6c0.6,0.3,0.8,1,0.6,1.6c0,0,0,0,0,0C82,34,73.1,48.7,61.1,60.6
		C48.9,72.8,34,81.9,17.6,87c-0.6,0.3-1.3,0-1.6-0.5c-5.4-7.4-8.6-16.2-9.2-25.4c-1.4-16,5-31.8,17.3-42.2
		c8.1-7.1,18.3-11.4,29.1-12.1C54.5,6.8,55.8,6.7,56.7,6.7z"/>
	<path class="st2" d="M18.7,89.7c4-1.1,7.9-2.3,11.7-3.2c10.9-2.6,21.9-5,32.8-7.6c6.7-1.5,13.1-3.8,19.1-7
		c8-4.2,14.1-11.3,17.3-19.8c2.2-5.7,2.7-11.9,1.7-18c0-0.3,0-0.5-0.1-0.9c10.4,17.7,9,46.2-12.8,63.5
		C67.1,113.5,36.2,110.5,18.7,89.7z"/>
</g>
</svg>
