<?xml version="1.0" encoding="utf-8"?>
<!-- Generator: Adobe Illustrator 22.1.0, SVG Export Plug-In . SVG Version: 6.00 Build 0)  -->
<svg version="1.1" id="Layer_2_1_" xmlns="http://www.w3.org/2000/svg" xmlns:xlink="http://www.w3.org/1999/xlink" x="0px" y="0px"
	 viewBox="0 0 114.1 114.2" style="enable-background:new 0 0 114.1 114.2;" xml:space="preserve">
<style type="text/css">
	.st0{fill:#FFFFFF;}
	.st1{fill:#004990;}
	.st2{fill:#CE0023;}
</style>
<g>
	<circle class="st0" cx="57.9" cy="57.1" r="51"/>
	<g>
		<g>
			<path class="st1" d="M12.5,48.4v17.4c0,0.5,0.4,1,1,1h3.1c0.5,0,1-0.4,1-1v-4.2c0-0.2,0.2-0.4,0.4-0.4h7.3c4.5,0,7.5-3.1,7.5-6.9
				v0c0-3.8-2.9-6.9-7.5-6.9H13.5C13,47.4,12.5,47.8,12.5,48.4z M17.6,56.1v-3.8c0-0.2,0.2-0.4,0.4-0.4h7c1.2,0,2.2,0.7,2.2,2.3v0
				c0,1.7-1,2.3-2.2,2.3h-7C17.7,56.5,17.6,56.3,17.6,56.1z"/>
			<path class="st1" d="M54.3,48.4v17.4c0,0.5,0.4,1,1,1h3.1c0.5,0,1-0.4,1-1v-4.2c0-0.2,0.2-0.4,0.4-0.4h7.3c4.5,0,7.5-3.1,7.5-6.9
				v0c0-3.8-2.9-6.9-7.5-6.9H55.3C54.8,47.4,54.3,47.8,54.3,48.4z M59.4,56.1v-3.8c0-0.2,0.2-0.4,0.4-0.4h7c1.2,0,2.2,0.7,2.2,2.3v0
				c0,1.7-1,2.3-2.2,2.3h-7C59.6,56.5,59.4,56.3,59.4,56.1z"/>
			<path class="st1" d="M102.6,49v16.2c0,0.9-0.7,1.6-1.6,1.6h-1.9c-0.9,0-1.6-0.7-1.6-1.6V49c0-0.9,0.7-1.6,1.6-1.6h1.9
				C101.9,47.4,102.6,48.1,102.6,49z"/>
			<path class="st1" d="M52.7,50.9v-2.5c0-0.5-0.4-1-1-1H35.1c-0.5,0-1,0.4-1,1v17.4c0,0.5,0.4,1,1,1h16.6c0.5,0,1-0.4,1-1v-2.5
				c0-0.5-0.4-1-1-1H39.6c-0.2,0-0.4-0.2-0.4-0.4v-2.6c0-0.2,0.2-0.4,0.4-0.4h10.2c0.5,0,1-0.4,1-1v-2.4c0-0.5-0.4-1-1-1H39.6
				c-0.2,0-0.4-0.2-0.4-0.4v-1.8c0-0.2,0.2-0.4,0.4-0.4h12.2C52.3,51.9,52.7,51.4,52.7,50.9z"/>
			<path class="st1" d="M80.7,53c0-0.9,1.1-1.6,4.7-1.6c2.6,0,4.1,0.7,4.7,1.5c0.3,0.5,0.8,0.7,1.3,0.7l4,0c0.4,0,0.6-0.3,0.6-0.7
				c-0.6-2.9-5.2-6-10.5-6c-6.9,0-10,3.5-10,6.7c0,3.5,2.4,4.8,6.3,5.2l6.1,0.6c1.3,0.1,2.4,0.4,2.4,1.5c0,0.9-1.4,1.7-5.1,1.7
				c-3,0-4.6-0.8-5.1-1.7c-0.3-0.5-0.8-0.8-1.4-0.8l-3.4,0c-0.4,0-0.6,0.3-0.6,0.7c0.5,2,2.8,6.4,10.9,6.4c7.1,0,10.4-3.5,10.4-6.8
				c0-3.2-2.9-5.2-7.6-5.6l-5.3-0.4C81.9,54.3,80.7,54.1,80.7,53z"/>
		</g>
		<path class="st1" d="M105,64.3c-0.7,0-1.3,0.6-1.3,1.3c0,0.3,0.1,0.7,0.4,0.9c0.2,0.2,0.6,0.4,0.9,0.4h0c0.7,0,1.3-0.6,1.3-1.3
			C106.2,64.8,105.7,64.3,105,64.3 M105.3,65.2c0,0.2-0.1,0.2-0.3,0.2l-0.2,0l0-0.4l0.2,0C105.2,65.1,105.3,65.1,105.3,65.2
			 M105.2,65.7c0.2,0,0.3-0.2,0.3-0.4c0-0.1,0-0.2-0.1-0.3c-0.1-0.1-0.2-0.1-0.4-0.1l-0.6,0l0,1.5h0.3l0-0.6h0.2l0.4,0.6h0.3
			c-0.2,0.1-0.4,0.2-0.6,0.2c-0.3,0-0.5-0.1-0.7-0.3c-0.2-0.2-0.3-0.4-0.3-0.7c0-0.6,0.4-1,1-1v0l0,0c0.3,0,0.5,0.1,0.7,0.3
			c0.2,0.2,0.3,0.4,0.3,0.7c0,0.3-0.1,0.5-0.3,0.7L105.2,65.7z M105,66.8L105,66.8L105,66.8L105,66.8z"/>
	</g>
	<g>
		<path class="st2" d="M81.8,35.2c9.7,0,14.2,1.6,18.4,2.8c0.2,0.1,0.4-0.2,0.3-0.4C93.2,21.5,76.9,10.3,58,10.3
			c-18.9,0-35.3,11.3-42.6,27.5c-0.2,0.4,0,0.8,0.4,0.9c4.2,1.2,8.7,2.8,18.3,2.8C55,41.5,60.9,35.2,81.8,35.2z"/>
		<path class="st1" d="M34.1,79c-9.7,0-14.2-1.6-18.4-2.8c-0.2-0.1-0.4,0.2-0.3,0.4C22.8,92.7,39,103.9,58,103.9
			c18.9,0,35.3-11.3,42.6-27.5c0.2-0.4,0-0.8-0.4-0.9c-4.2-1.2-8.7-2.8-18.4-2.8C60.9,72.7,55,79,34.1,79z"/>
	</g>
</g>
</svg>
