<svg xmlns="http://www.w3.org/2000/svg" viewBox="0 0 266.98 266.59"><defs><style>.cls-1{fill:#fff;}</style></defs><title>Asset 1</title><g id="Layer_2" data-name="Layer 2"><g id="Layer_1-2" data-name="Layer 1"><path class="cls-1" d="M227.18,39.8l30-30.1A19.22,19.22,0,0,1,260,6.92a51.83,51.83,0,0,1,5-2.55c.64,1.77,1.83,3.52,1.84,5.29.12,22,.08,44,.08,66,0,11.83-.14,23.66.07,35.49.08,4.35-1.39,5.74-5.77,5.72-33.66-.15-67.32-.06-101-.16-2,0-3.9-1.08-5.85-1.66.93-1.79,1.48-4,2.84-5.32C172.55,94.42,188,79.25,203.66,63.78,193,52.47,181.11,44.39,167.37,39.45,99.62,15.08,29.67,67.28,33.43,139.22c2.28,43.85,35.41,82.85,78.09,91.93,27.29,5.82,54.19.49,75.76-13.69A99.2,99.2,0,0,0,221,179.64c17.27,5.6,10.27,3.6,31.54,11.7-10.21,19.66-23.1,35.88-38.83,48.19-16.88,13.21-37,21.91-60.68,25.5C82.46,275.75,17.5,230.47,3.1,160.64c-9.44-45.77,2.79-86.09,35-120,45.31-47.75,119.77-54.21,172.45-15C216.27,29.83,221.41,34.84,227.18,39.8Z"/></g></g></svg>