<?xml version="1.0" standalone="no"?>
<!DOCTYPE svg PUBLIC "-//W3C//DTD SVG 20010904//EN"
 "http://www.w3.org/TR/2001/REC-SVG-20010904/DTD/svg10.dtd">
<svg version="1.0" xmlns="http://www.w3.org/2000/svg"
 width="409.000000pt" height="409.000000pt" viewBox="0 0 409.000000 409.000000"
 preserveAspectRatio="xMidYMid meet">
<metadata>
Created by potrace 1.11, written by Peter Selinger 2001-2013
</metadata>
<g transform="translate(0.000000,409.000000) scale(0.100000,-0.100000)"
fill="#000000" stroke="none">
<path d="M1947 4084 c-1 -1 -42 -5 -92 -8 -49 -4 -123 -14 -165 -22 -41 -8
-86 -17 -100 -20 -241 -47 -546 -190 -784 -367 -103 -77 -302 -277 -383 -384
-143 -189 -267 -433 -333 -656 -17 -55 -32 -112 -35 -125 -2 -14 -9 -48 -15
-76 -36 -182 -45 -524 -17 -661 3 -11 8 -42 11 -68 32 -216 140 -508 263 -707
167 -270 413 -519 670 -679 165 -102 419 -211 573 -246 35 -8 122 -26 145 -30
17 -3 41 -7 54 -10 99 -20 379 -26 526 -11 44 4 82 9 85 11 3 2 27 6 53 9 79
11 265 62 367 101 720 275 1225 931 1307 1698 3 34 7 127 7 207 1 230 -23 392
-89 610 -19 63 -71 203 -83 226 -6 10 -29 56 -52 102 -22 46 -49 95 -58 110
-10 15 -39 59 -65 97 -223 338 -586 626 -967 768 -91 34 -251 80 -315 92 -16
2 -41 7 -55 10 -14 3 -41 7 -60 9 -19 3 -61 8 -93 12 -53 6 -294 13 -300 8z"/>
</g>
</svg>
