<?xml version="1.0" standalone="no"?>
<!DOCTYPE svg PUBLIC "-//W3C//DTD SVG 20010904//EN"
 "http://www.w3.org/TR/2001/REC-SVG-20010904/DTD/svg10.dtd">
<svg version="1.0" xmlns="http://www.w3.org/2000/svg"
 width="400.000000pt" height="400.000000pt" viewBox="0 0 400.000000 400.000000"
 preserveAspectRatio="xMidYMid meet">
<metadata>
Created by potrace 1.11, written by Peter Selinger 2001-2013
</metadata>
<g transform="translate(0.000000,400.000000) scale(0.100000,-0.100000)"
fill="#000000" stroke="none">
<path d="M1802 3919 c-584 -56 -1112 -383 -1444 -894 -219 -336 -323 -763
-290 -1180 27 -343 125 -635 302 -910 55 -84 65 -95 91 -95 16 0 93 23 171 51
944 338 1724 1000 2211 1876 135 244 302 636 314 740 l6 42 -94 61 c-376 244
-820 352 -1267 309z"/>
<path d="M3704 2870 c3 -19 8 -91 12 -160 19 -363 -123 -732 -386 -1003 -153
-159 -308 -264 -537 -367 -221 -98 -382 -144 -1076 -305 -364 -84 -725 -169
-802 -189 -168 -42 -374 -102 -382 -110 -14 -13 167 -191 292 -287 616 -474
1482 -528 2150 -134 509 299 847 790 940 1365 45 281 23 603 -61 879 -29 96
-104 271 -135 316 l-21 30 6 -35z"/>
</g>
</svg>
