<?xml version="1.0" encoding="utf-8"?>
<!-- Generator: Adobe Illustrator 22.1.0, SVG Export Plug-In . SVG Version: 6.00 Build 0)  -->
<svg version="1.1" id="Layer_1" xmlns="http://www.w3.org/2000/svg" xmlns:xlink="http://www.w3.org/1999/xlink" x="0px" y="0px"
	 viewBox="0 0 97.8 96.8" style="enable-background:new 0 0 97.8 96.8;" xml:space="preserve">
<path d="M48.9,1.9C23.2,1.9,2.4,22.7,2.4,48.4c0,25.7,20.8,46.5,46.5,46.5s46.5-20.8,46.5-46.5S74.6,1.9,48.9,1.9z M61.3,48.8
	c-2.4,0.1-4.8,0.3-7.8,0.5c0,9.5,0,18.9,0,28.7c-4.3,0-8,0-12.5,0c0-9.7,0-19,0-28.4c-2-0.3-3.6-0.6-5.3-0.9c0-3.1,0-6,0-9.3
	c1.5-0.3,3.1-0.5,5-0.8c0.9-5.6-1.1-12.9,5-16.1C50.1,20,56,20,61.8,18.8c0,4.4,0,7.4,0,10.5c-9.5,1.8-9.5,1.8-8,9.3
	c2.7,0.2,5.4,0.3,8.5,0.5C61.9,42.3,61.6,45.3,61.3,48.8z"/>
</svg>
