<?xml version="1.0" encoding="utf-8"?>
<!-- Generator: Adobe Illustrator 22.1.0, SVG Export Plug-In . SVG Version: 6.00 Build 0)  -->
<svg version="1.1" id="Layer_1" xmlns="http://www.w3.org/2000/svg" xmlns:xlink="http://www.w3.org/1999/xlink" x="0px" y="0px"
	 viewBox="0 0 97.8 96.8" style="enable-background:new 0 0 97.8 96.8;" xml:space="preserve">
<g>
	<path d="M48.8,39.2c-5,0.1-8.9,4.2-8.8,9.5c0.1,4.8,4.2,8.9,8.9,8.8c4.9-0.1,9.1-4.6,8.9-9.5C57.6,43.1,53.5,39.1,48.8,39.2z"/>
	<path d="M48.9,1.9C23.2,1.9,2.4,22.7,2.4,48.4s20.8,46.5,46.5,46.5s46.5-20.8,46.5-46.5S74.6,1.9,48.9,1.9z M75.1,59.5
		c-0.2,8.6-5.6,14.7-14.1,15.1c-8,0.4-16,0.4-24,0c-8.5-0.5-13.6-5.4-14.1-13.9c-0.5-8.4-0.6-17,0-25.4c0.6-8.4,6.3-13.2,14.6-13.4
		c7.3-0.1,14.7-0.2,22,0c9.8,0.2,15.4,5.9,15.6,15.6c0.1,3.7,0,7.3,0,11C75.2,52.2,75.2,55.8,75.1,59.5z"/>
	<path d="M61.1,26.5c-8.1-0.4-16.3-0.5-24.4,0c-6.1,0.3-9.1,4-9.5,10.2c-0.2,3.8,0,7.7,0,11.5c-0.1,0-0.1,0-0.2,0c0,2,0,4,0,6
		c0,1.8,0.1,3.7,0.2,5.5c0.4,6.2,3.4,9.9,9.4,10.3c8.4,0.4,16.9,0.3,25.4-0.1c5.1-0.2,8.4-3.6,8.6-8.7c0.3-8.5,0.3-17-0.1-25.4
		C70.1,30.1,66.8,26.8,61.1,26.5z M48.8,61.9c-7,0-13.3-6.3-13.5-13.3c-0.1-7.3,6.3-13.8,13.5-13.8c7.1,0,13.2,6.2,13.3,13.4
		C62.4,55.6,56.2,61.9,48.8,61.9z M62.4,37.6c-1.5,0-2.8-1.2-2.8-2.8s1.2-2.8,2.8-2.8c1.5,0,2.8,1.2,2.8,2.8S63.9,37.6,62.4,37.6z"
		/>
</g>
</svg>
